# xmcd
#
# Track frame offsets:
#	150
#	11695
#	23977
#	36765
#	50165
#	63692
#	74227
#	86290
#	95527
#	104840
#	116900
#	125997
#	137062
#	151175
#	163272
#	175332
#
# Disc length: 2459 seconds
#
# Revision: 4
# Processed by: cddbd v1.5.2PL0 Copyright (c) Steve Scherf et al.
# Submitted via: audiograbber 1.83.01
#
DISCID=f5099910
DTITLE=West, Dottie - RCA Country Legends
DYEAR=2001
DGENRE=Country
TTITLE0=Here Comes My Baby
TTITLE1=Would You Hold It Against Me
TTITLE2=Let Me Off At The Corner
TTITLE3=What's Come Over My Baby
TTITLE4=Paper Mansions
TTITLE5=Night Life
TTITLE6=There's A Story (Goin' Round) (with Don Gibson)
TTITLE7=Slowly (with Jimmy Dean)
TTITLE8=Country Sunshine
TTITLE9=Lock, Stock And Teardrops (with Don Gibson)
TTITLE10=Careless Hands
TTITLE11=The Cold Hand Of Fate
TTITLE12=Country Girl
TTITLE13=If It's All Right With You
TTITLE14=Sweet Thang (with Jimmy Dean)
TTITLE15=Before The Ring On Your Finger Turns Green
EXTD=
EXTT0=
EXTT1=
EXTT2=
EXTT3=
EXTT4=
EXTT5=
EXTT6=
EXTT7=
EXTT8=
EXTT9=
EXTT10=
EXTT11=
EXTT12=
EXTT13=
EXTT14=
EXTT15=
PLAYORDER=
